<svg height='100px' width='100px'  fill="#02A9E6" xmlns="http://www.w3.org/2000/svg" xmlns:xlink="http://www.w3.org/1999/xlink" version="1.1" x="0px" y="0px" viewBox="0 0 300 300" style="enable-background:new 0 0 300 300;" xml:space="preserve"><path d="M188.6,230.8c-17.4,0-31.6-14.2-31.6-31.6s14.2-31.6,31.6-31.6s31.6,14.2,31.6,31.6S206.1,230.8,188.6,230.8z M188.6,176.5  c-12.5,0-22.6,10.2-22.6,22.6s10.2,22.6,22.6,22.6s22.6-10.1,22.6-22.6S201.1,176.5,188.6,176.5z"></path><path d="M110,191.8c-17.4,0-31.6-14.2-31.6-31.6s14.2-31.6,31.6-31.6s31.6,14.2,31.6,31.6S127.4,191.8,110,191.8z M110,137.5  c-12.5,0-22.6,10.1-22.6,22.6c0,12.5,10.1,22.6,22.6,22.6s22.6-10.1,22.6-22.6C132.6,147.7,122.4,137.5,110,137.5z"></path><path d="M31.3,274c-17.4,0-31.6-14.2-31.6-31.6s14.2-31.6,31.6-31.6s31.6,14.2,31.6,31.6S48.8,274,31.3,274z M31.3,219.7  c-12.5,0-22.6,10.2-22.6,22.6S18.8,265,31.3,265s22.6-10.1,22.6-22.6S43.8,219.7,31.3,219.7z"></path><path d="M267.3,98.5c-17.4,0-31.6-14.2-31.6-31.6s14.2-31.6,31.6-31.6s31.6,14.2,31.6,31.6S284.7,98.5,267.3,98.5z M267.3,44.2  c-12.5,0-22.6,10.1-22.6,22.6s10.1,22.6,22.6,22.6s22.6-10.1,22.6-22.6S279.8,44.2,267.3,44.2z"></path><rect x="40.9" y="196.8" transform="matrix(0.6914 -0.7225 0.7225 0.6914 -123.6154 113.1566)" width="59.5" height="9"></rect><rect x="143.2" y="163.5" transform="matrix(0.4442 -0.8959 0.8959 0.4442 -78.1646 231.75)" width="9" height="30.8"></rect><rect x="178.1" y="128.5" transform="matrix(0.511 -0.8596 0.8596 0.511 -2.8694 260.9772)" width="99.7" height="9"></rect></svg>