<?xml version="1.0" encoding="utf-8"?>
<!-- Generator: Adobe Illustrator 24.2.3, SVG Export Plug-In . SVG Version: 6.00 Build 0)  -->
<svg version="1.1" id="Layer_1" xmlns="http://www.w3.org/2000/svg" xmlns:xlink="http://www.w3.org/1999/xlink" x="0px" y="0px"
	 viewBox="0 0 30 39.6" style="enable-background:new 0 0 30 39.6;" xml:space="preserve">
<style type="text/css">
	.st0{fill:#198CC1;}
</style>
<g>
	<path class="st0" d="M28.5,2.6h-1.9V0.6c0-0.4-0.3-0.6-0.6-0.6H1.7C1.3,0,1,0.3,1,0.6v35.8c0,0.4,0.3,0.6,0.6,0.6h1.9V39
		c0,0.4,0.3,0.6,0.6,0.6h24.3c0.4,0,0.6-0.3,0.6-0.6V3.2C29.1,2.8,28.8,2.6,28.5,2.6z M2.3,35.8V1.3h23v34.5H2.3z M27.9,38.3h-23
		v-1.3h21.1c0.4,0,0.6-0.3,0.6-0.6V3.8h1.3V38.3z"/>
	<path class="st0" d="M9.3,6.4h8.9c1.1,0,1.9-0.9,1.9-1.9s-0.9-1.9-1.9-1.9H9.3c-1.1,0-1.9,0.9-1.9,1.9S8.3,6.4,9.3,6.4z M9.3,3.8
		h8.9c0.4,0,0.6,0.3,0.6,0.6s-0.3,0.6-0.6,0.6H9.3C9,5.1,8.7,4.8,8.7,4.5S9,3.8,9.3,3.8z"/>
	<path class="st0" d="M4.2,14.1h4.5c0.4,0,0.6-0.3,0.6-0.6v-3l1.6-0.9c0.3-0.2,0.4-0.6,0.2-0.9c-0.2-0.3-0.6-0.4-0.9-0.2l-1,0.5
		c0-0.4-0.3-0.6-0.6-0.6H4.2c-0.4,0-0.6,0.3-0.6,0.6v4.5C3.6,13.8,3.9,14.1,4.2,14.1L4.2,14.1z M8,12.8H4.8v-1.9
		c0,0.2,0.1,0.3,0.2,0.5L5.7,12c0.2,0.2,0.5,0.2,0.8,0.1L8,11.1L8,12.8z M8,9.6L8,9.6l-1.8,1.1l-0.3-0.3c-0.2-0.2-0.7-0.2-0.9,0
		c-0.1,0.1-0.2,0.3-0.2,0.5V9.6H8z"/>
	<path class="st0" d="M11.9,9.6c0,0.4,0.3,0.6,0.6,0.6h10.9c0.4,0,0.6-0.3,0.6-0.6s-0.3-0.6-0.6-0.6H12.5
		C12.2,8.9,11.9,9.2,11.9,9.6z"/>
	<path class="st0" d="M23.4,11.5H12.5c-0.4,0-0.6,0.3-0.6,0.6c0,0.4,0.3,0.6,0.6,0.6h10.9c0.4,0,0.6-0.3,0.6-0.6
		C24,11.8,23.7,11.5,23.4,11.5z"/>
	<path class="st0" d="M4.2,21.1h4.5c0.4,0,0.6-0.3,0.6-0.6V16c0-0.4-0.3-0.6-0.6-0.6H4.2c-0.4,0-0.6,0.3-0.6,0.6v4.5
		C3.6,20.8,3.9,21.1,4.2,21.1z M4.8,16.6H8v3.2H4.8V16.6z"/>
	<path class="st0" d="M23.4,16H12.5c-0.4,0-0.6,0.3-0.6,0.6s0.3,0.6,0.6,0.6h10.9c0.4,0,0.6-0.3,0.6-0.6S23.7,16,23.4,16z"/>
	<path class="st0" d="M23.4,18.5H12.5c-0.4,0-0.6,0.3-0.6,0.6s0.3,0.6,0.6,0.6h10.9c0.4,0,0.6-0.3,0.6-0.6S23.7,18.5,23.4,18.5z"/>
	<path class="st0" d="M8.7,28.1c0.4,0,0.6-0.3,0.6-0.6V23c0-0.4-0.3-0.6-0.6-0.6H4.2c-0.4,0-0.6,0.3-0.6,0.6v4.5
		c0,0.4,0.3,0.6,0.6,0.6H8.7z M4.8,23.6H8v3.2H4.8V23.6z"/>
	<path class="st0" d="M23.4,23H12.5c-0.4,0-0.6,0.3-0.6,0.6s0.3,0.6,0.6,0.6h10.9c0.4,0,0.6-0.3,0.6-0.6S23.7,23,23.4,23z"/>
	<path class="st0" d="M23.4,25.6H12.5c-0.4,0-0.6,0.3-0.6,0.6c0,0.4,0.3,0.6,0.6,0.6h10.9c0.4,0,0.6-0.3,0.6-0.6
		C24,25.8,23.7,25.6,23.4,25.6z"/>
	<path class="st0" d="M19.5,31.3H8c-0.4,0-0.6,0.3-0.6,0.6c0,0.4,0.3,0.6,0.6,0.6h11.5c0.4,0,0.6-0.3,0.6-0.6
		C20.2,31.6,19.9,31.3,19.5,31.3z"/>
	<path class="st0" d="M16.3,33.2h-5.1c-0.4,0-0.6,0.3-0.6,0.6s0.3,0.6,0.6,0.6h5.1c0.4,0,0.6-0.3,0.6-0.6S16.7,33.2,16.3,33.2z"/>
</g>
</svg>
