<svg height='100px' width='100px'  fill="#02A9E6" xmlns="http://www.w3.org/2000/svg" data-name="Layer 1" viewBox="0 0 24 24" x="0px" y="0px"><title>04-faq</title><path d="M18,1H6A5.006,5.006,0,0,0,1,6v8a5.009,5.009,0,0,0,4,4.9V22a1,1,0,0,0,1.555.832L12.3,19H18a5.006,5.006,0,0,0,5-5V6A5.006,5.006,0,0,0,18,1ZM12,16a1,1,0,1,1,1-1A1,1,0,0,1,12,16Zm1.773-6.58A1.714,1.714,0,0,0,13,10.737V12a1,1,0,0,1-2,0V10.737a3.658,3.658,0,0,1,1.591-2.929A1,1,0,1,0,11,7,1,1,0,0,1,9,7a3,3,0,1,1,4.773,2.42Z"></path></svg>