<svg xmlns="http://www.w3.org/2000/svg" width="36.7" height="36.343" viewBox="0 0 36.7 36.343"><g transform="translate(0 -2.493)"><path d="M36.4,6.946,32.065,2.815a.879.879,0,0,0-.654-.322H14.057a.92.92,0,0,0-.919.919V6.235L7.02,7.284a.906.906,0,0,0-.735,1.045l.31,1.81c-1.988.669-4.029,1.359-6,2.067a.91.91,0,0,0-.544,1.156l3.92,10.9a.538.538,0,1,0,1.012-.364L1.122,13.159c1.857-.665,3.779-1.315,5.658-1.948l1.847,10.77,2.126,12.4a.911.911,0,0,0,1.045.737l5.757-.988,4.5-.771-6.766,2.432L9.952,37.712,5.808,26.187a.538.538,0,0,0-1.012.364L9,38.24a.908.908,0,0,0,.851.6.889.889,0,0,0,.306-.054l5.5-1.976L28.13,32.321l2.384-.409h5.266a.921.921,0,0,0,.919-.921V7.552a.773.773,0,0,0-.3-.606Zm-1.424.127H32.217c-.129,0-.43,0-.507-.073a.3.3,0,0,1-.038-.185l-.006-2.9Zm.651,23.763H14.212V20.359a.538.538,0,0,0-1.075,0V30.99a.921.921,0,0,0,.919.921H24.15l-6.777,1.162-5.59.959L9.687,21.8,7.374,8.314l5.763-.988V17.865a.538.538,0,1,0,1.075,0V3.568H30.59L30.6,6.817a1.28,1.28,0,0,0,.356.947,1.644,1.644,0,0,0,1.194.385h3.478Z" fill="#198cc1"/><path d="M234.43,111.987a.538.538,0,0,0,.538.538h15.371a.538.538,0,0,0,0-1.075H234.968A.538.538,0,0,0,234.43,111.987Z" transform="translate(-217.626 -101.146)" fill="#198cc1"/><path d="M250.338,164.731H234.968a.538.538,0,0,0,0,1.075h15.371a.538.538,0,0,0,0-1.075Z" transform="translate(-217.626 -150.609)" fill="#198cc1"/><path d="M250.338,218.013H234.968a.538.538,0,0,0,0,1.075h15.371a.538.538,0,1,0,0-1.075Z" transform="translate(-217.626 -200.071)" fill="#198cc1"/><path d="M250.338,271.3H234.968a.538.538,0,0,0,0,1.075h15.371a.538.538,0,0,0,0-1.075Z" transform="translate(-217.626 -249.534)" fill="#198cc1"/><path d="M250.338,324.578H234.968a.538.538,0,0,0,0,1.075h15.371a.538.538,0,0,0,0-1.075Z" transform="translate(-217.626 -298.998)" fill="#198cc1"/></g></svg>