<svg xmlns="http://www.w3.org/2000/svg" width="29.973" height="39.618" viewBox="0 0 29.973 39.618"><g transform="translate(-60.485 1)"><g transform="translate(60.485 -1)"><path d="M87.965,20.253a3.3,3.3,0,0,0,.773-1.211,3.206,3.206,0,0,0-.143-2.438l-.072-.143a3.244,3.244,0,0,0-1.793-1.578,2.912,2.912,0,0,0-.4-.114,3.537,3.537,0,0,0,.548-1.822,3.149,3.149,0,0,0-2.582-3.155l5.235-5.235a3.454,3.454,0,0,0,.932-2.295,3.029,3.029,0,0,0-.932-2.295,3.2,3.2,0,0,0-4.589,0l-14.27,14.27c-2.438-.359-3.657.645-5.235,2.223l-.072.072c-2.151,2.151-2.223,5.306-2.223,6.31l-1.793,1.793a2.772,2.772,0,0,0,0,4.016l9.179,9.107a2.773,2.773,0,0,0,4.016,0L76.4,35.965c3.442-.5,4.231-1.219,7.744-4.733A30.257,30.257,0,0,0,88.092,26l.016-.01a3.181,3.181,0,0,0,1.346-4.221A3.223,3.223,0,0,0,87.965,20.253Zm-7.258,1.012a3.877,3.877,0,0,0,2.008-3.8l2.223-1.076a1.605,1.605,0,0,1,1.291-.072,1.7,1.7,0,0,1,1,.86l.072.143a1.3,1.3,0,0,1,.17.612,1.948,1.948,0,0,1-.1.536,1.7,1.7,0,0,1-.86,1l-1.362.645a.639.639,0,0,0-.331.3l-6.409,3.107a1.7,1.7,0,0,1-2.009-.9l-.072-.143c-.072-.143-.143-.215-.143-.359A26.659,26.659,0,0,0,80.707,21.265Zm-1.936,3.729,7.1-3.442a1.6,1.6,0,0,1,1.524-.041,1.936,1.936,0,0,1,.7.758,1.8,1.8,0,0,1,.072,1.362,1.558,1.558,0,0,1-.932,1.076.561.561,0,0,0-.221.177l-6.735,3.265a1.72,1.72,0,0,1-2.366-.789A1.693,1.693,0,0,1,78.771,24.994Zm6.1-13.409a1.8,1.8,0,0,1,.574,1.291,1.728,1.728,0,0,1-.5,1.291l-.215.215-1.291,1a.647.647,0,0,0-.1.1l-1.76.834-.048.031a5.351,5.351,0,0,0-2.39-1.035c-.139-.028-.3-.058-.484-.089l3.711-3.711a1.947,1.947,0,0,1,1.219-.43A1.728,1.728,0,0,1,84.866,11.585ZM85.941.972a1.91,1.91,0,0,1,2.581,0,2.062,2.062,0,0,1,.5,1.291,1.409,1.409,0,0,1-.645,1.219l-7.027,7.027-.072.072-4.3,4.3a.789.789,0,0,0-.062.071c-1.283-.187-2.843-.394-4.3-.583Zm-2.8,29.185c-3.514,3.585-3.944,3.944-7.171,4.374a1.5,1.5,0,0,0-.43.287l-2.008,1.936a1.451,1.451,0,0,1-2.008,0L62.35,27.575a1.386,1.386,0,0,1,0-2.008l2.079-2.008a.814.814,0,0,0,.215-.574,7.851,7.851,0,0,1,1.721-5.45c1.649-1.578,2.438-2.223,4.518-1.864h.072l1.219.143a.611.611,0,0,0,.3-.02c2.609.329,5.315.715,6.445.953,1.362.287,2.151.789,2.223,1.506a1.175,1.175,0,0,1-.09.591,2.694,2.694,0,0,1-.244.4,1.835,1.835,0,0,1-.67.511c-2.366,1.076-9.394,1.434-10.971.789a.726.726,0,1,0-.5,1.362,10.684,10.684,0,0,0,3.585.43c.8,0,1.648-.031,2.5-.091a2.739,2.739,0,0,0,.229.808l.072.143a3.236,3.236,0,0,0,1.74,1.58,3.164,3.164,0,0,0-.234,3.224,3.251,3.251,0,0,0,2.94,1.793,4.194,4.194,0,0,0,1.362-.287l4.675-2.267A22.455,22.455,0,0,1,83.145,30.157Z" transform="translate(-60.485 1)" fill="#198cc1"/></g></g></svg>