<svg height='100px' width='100px'  fill="#02A9E6" xmlns="http://www.w3.org/2000/svg" xmlns:cc="http://creativecommons.org/ns#" xmlns:dc="http://purl.org/dc/elements/1.1/" xmlns:rdf="http://www.w3.org/1999/02/22-rdf-syntax-ns#" version="1.1" viewBox="0 0 100 100" x="0px" y="0px"><path d="m8.5437 2.4648c-3.388 0-6.1155 2.7275-6.1155 6.1155v67.999c0 3.388 2.7275 6.1155 6.1155 6.1155l65.405-0.01244-10.052-9.5305-15.702 0.01244c-2.7352 0.42569-5.5198 0.42569-8.255 0h-29.967c-2.17 0.04052-2.17-3.2354 0-3.1948h20.854c-1.804-1.0146-3.4846-2.2344-5.0083-3.6352-2.2566-2.1117-4.1315-4.5974-5.5421-7.3473h-10.303c-2.1313 0-2.1313-3.1969 0-3.1969h8.8969c-1.2767-3.5156-1.8045-7.2592-1.5496-10.991h-7.3473c-2.2098 0.08572-2.2098-3.2743 0-3.1886h7.769c0.77117-3.9846 2.436-7.7424 4.8691-10.991h-12.638c-2.2399 0.11874-2.2399-3.3052 0-3.1865h15.442c4.8513-4.7208 11.307-7.4341 18.074-7.5965 6.981-0.15524 13.748 2.4163 18.864 7.1686 0.14076 0.14108 0.27995 0.28372 0.41753 0.42791h12.343c0.01797-1e-3 0.03595-0.0021 0.05403-0.0021 2.2025-0.03946 2.1458 3.3026-0.05403 3.1886h-9.5429c2.4243 3.2506 4.0804 7.0083 4.8442 10.991h4.6988c2.2098-0.08572 2.2098 3.2743 0 3.1886h-4.2875c0.26154 3.7301-0.25921 7.4737-1.5289 10.991h5.8163c2.1313 0 2.1313 3.1969 0 3.1969h-7.1852c-0.62471 1.1786-1.3364 2.309-2.1292 3.3818l0.62111 0.53178c1.1014-0.49419 2.1906-1.1339 3.8159 0.12048l12.42 11.666v-66.107c0-3.388-2.7275-6.1155-6.1155-6.1155zm13.66 9.8067h40.677c2.1313 0 2.1313 3.1969 0 3.1969h-40.677c-2.1313 0-2.1313-3.1969 0-3.1969zm22.158 9.5679c-6.7591-0.07296-13.526 2.5901-18.479 7.9227-9.3247 10.038-8.7437 25.783 1.2941 35.108 9.6854 8.9974 24.68 8.7699 34.098-0.2742l2.796 2.7544c-0.62756 0.9254-0.85212 1.8006-0.47154 2.1541l29.57 27.468c0.48917 0.45443 1.7639-0.12853 2.8583-1.3066l0.72912-0.78313c1.0944-1.1781 1.5797-2.4932 1.0906-2.9476l-29.568-27.468c-0.36847-0.34228-1.1824-0.0953-2.0295 0.55048l-2.8188-2.7794c8.1019-10.054 7.1626-24.847-2.4408-33.768-4.7052-4.371-10.665-6.5662-16.628-6.6306zm-1.0739 3.1844c5.5332-0.20516 11.144 1.7055 15.532 5.781 8.7744 8.1511 9.2791 21.828 1.128 30.602-8.1511 8.7744-21.828 9.277-30.602 1.1259-8.7744-8.1511-9.2728-21.822-1.1217-30.596 4.0755-4.3872 9.531-6.7079 15.064-6.9131zm14.449 10.44a1.7412 1.7412 0 0 0-1.2007 0.51101l-18.222 17.538-6.5018-8.6289a1.7412 1.7412 0 1 0-2.7773 2.0897l7.6859 10.206a1.7412 1.7412 0 0 0 2.5987 0.20358l19.628-18.905a1.7412 1.7412 0 0 0-1.211-3.0141zm3.8533 31.47c-1.2963 1.1443-2.7001 2.1606-4.1919 3.0349h3.8616c0.15-0.95245 0.40376-1.8179 0.7395-2.6132z"></path></svg>