<?xml version="1.0" encoding="utf-8"?>
<!-- Generator: Adobe Illustrator 24.2.3, SVG Export Plug-In . SVG Version: 6.00 Build 0)  -->
<svg version="1.1" id="Layer_1" xmlns="http://www.w3.org/2000/svg" xmlns:xlink="http://www.w3.org/1999/xlink" x="0px" y="0px"
	 viewBox="0 0 31.8 40.5" style="enable-background:new 0 0 31.8 40.5;" xml:space="preserve">
<style type="text/css">
	.st0{fill:#198CC1;}
	.st1{fill:#FFFFFF;}
</style>
<g>
	<g id="path26">
		<path class="st0" d="M15.7,40.5c-1.7,0-9.8,0-12-0.9l-0.1-0.3l-0.1-0.8l-0.1-6.1l24.4,0.4l-0.1,6.3l-0.1,0.5
			C25.5,40.4,17.4,40.5,15.7,40.5z M4.7,38c1.2,0.3,5.2,0.6,10.9,0.6c5.7,0,9.7-0.3,10.9-0.6v-5.2L4.7,32.9V38z"/>
	</g>
	<g id="path36">
		<path class="st0" d="M8.8,27.5c-1.9,0-3.4-1.4-3.4-3.1s1.5-3.1,3.4-3.1s3.4,1.4,3.4,3.1S10.6,27.5,8.8,27.5z M8.8,22.4
			c-1.3,0-2.3,0.9-2.3,2c0,1.1,1,2,2.3,2c1.3,0,2.3-0.9,2.3-2C11.1,23.3,10,22.4,8.8,22.4z"/>
	</g>
	<g id="path36_1_">
		<path class="st0" d="M22.6,27.5c-1.9,0-3.4-1.4-3.4-3.1s1.5-3.1,3.4-3.1s3.4,1.4,3.4,3.1S24.4,27.5,22.6,27.5z M22.6,22.4
			c-1.3,0-2.3,0.9-2.3,2c0,1.1,1,2,2.3,2c1.3,0,2.3-0.9,2.3-2C24.9,23.3,23.9,22.4,22.6,22.4z"/>
	</g>
	<g>
		<path class="st0" d="M15.7,34.3c-1.9,0-11.1-0.1-13.4-1.1H1.6l-0.1-0.9V7.7c0-0.8,0-1.9,11.5-2.1h0.3c0.3,0,0.6,0,0.9,0l0.2,0
			c0,0,0,0,0,0l0,0l0.5,0c1.1,0,2.1,0,3.2,0l0.3,0c11.4,0.2,11.4,1.3,11.4,2.1v25.5H29C26.7,34.2,17.6,34.3,15.7,34.3z M3.3,31.7
			c1.2,0.3,5.5,0.8,12.3,0.8c6.8,0,11.1-0.4,12.3-0.8V8.2c-1-0.3-4.1-0.6-9.6-0.8h-0.3c-0.8,0-1.6,0-2.5,0c-0.1,0-0.3,0-0.4,0l0,0
			l-0.4,0l-0.4,0l0,0c0,0,0,0,0,0l-0.2,0c-0.3,0-0.6,0-0.9,0l-0.3,0C7.5,7.6,4.3,8,3.3,8.2V31.7z"/>
	</g>
	<g id="g362">
		<path id="path360" class="st1" d="M5.9,9c0,0.3-0.3,0.5-0.6,0.5C4.9,9.5,4.7,9.3,4.7,9s0.3-0.5,0.6-0.5C5.6,8.5,5.9,8.7,5.9,9z
			 M7.3,9.3c0,0.2-0.2,0.3-0.4,0.3c-0.2,0-0.4-0.1-0.4-0.3S6.7,9,6.9,9S7.3,9.1,7.3,9.3z"/>
	</g>
	<path class="st0" d="M14.6,6.9c-0.4-0.1-1.2-0.7-1.1-1.7c0-0.6,0.4-1.1,1-1.5c-0.3-0.4-0.5-0.9-0.5-1.5C13.9,0.5,16.3,0,17.3,0v0.3
		c-0.6,0-2.3,0.9-2.3,1.8c0,0.4,0.1,0.7,0.4,0.9c0.7-0.3,1.4-0.5,2.2-0.5c1,0,1.8,0.3,2,0.8c0.2,0.3,0.1,0.6,0,0.9
		C19.2,4.8,18.3,5,17.2,5c-0.6,0-1.4-0.3-2-0.7c-0.4,0.3-0.7,0.6-0.7,0.9c0,0.5,0.4,0.7,0.5,0.7L14.6,6.9z M16.5,3.7
		c0.3,0.1,0.6,0.2,0.8,0.2c0.7,0,1-0.1,1.2-0.1c-0.2-0.1-0.5-0.2-1-0.2C17.1,3.6,16.8,3.6,16.5,3.7z"/>
</g>
</svg>
