<svg xmlns="http://www.w3.org/2000/svg" width="31.778" height="40.476" viewBox="0 0 31.778 40.476"><g transform="translate(-55.011)"><g transform="translate(57.863 26.637)"><path d="M92.657,337.581a.8.8,0,0,0-.045-.148.815.815,0,0,0-.073-.137.846.846,0,0,0-.1-.12.8.8,0,0,0-.257-.171.817.817,0,0,0-.148-.045.783.783,0,0,0-.309,0,.8.8,0,0,0-.148.045.81.81,0,0,0-.137.073.766.766,0,0,0-.218.218.807.807,0,0,0-.073.137.8.8,0,0,0-.045.148.763.763,0,0,0,0,.309.789.789,0,0,0,.118.284.752.752,0,0,0,.1.12.764.764,0,0,0,.12.1.811.811,0,0,0,.137.073.8.8,0,0,0,.148.045.777.777,0,0,0,.154.015.792.792,0,0,0,.155-.015.817.817,0,0,0,.148-.045.782.782,0,0,0,.257-.172.794.794,0,0,0,.216-.4.8.8,0,0,0,0-.309Z" transform="translate(-91.091 -336.945)" fill="#198cc1"/></g><g transform="translate(55.011)"><path d="M86.789,26.769a2.831,2.831,0,0,0-2.828-2.828H82.319V19.263a.791.791,0,0,0-.476-.725l-.936-.406v-.85h.621a.791.791,0,0,0,.791-.791V13.077a.791.791,0,0,0-.791-.791h-.737V5.979l.572-.7a.79.79,0,0,0,.177-.5V.791A.791.791,0,0,0,80.75,0H75.933a.791.791,0,0,0-.791.791V4.777a.791.791,0,0,0,.177.5l.572.7v6.307h-.737a.791.791,0,0,0-.791.791v3.415a.791.791,0,0,0,.791.791h.621v.85l-.936.406a.791.791,0,0,0-.476.725V20.8a13.668,13.668,0,0,0-7.376,2.726l-.017.012A9.112,9.112,0,0,1,62.3,25.415V24.77a.791.791,0,0,0-.791-.791H55.8a.791.791,0,0,0-.791.791V39.686a.791.791,0,0,0,.791.791h5.705a.791.791,0,0,0,.791-.791v-.823H62.3a11.629,11.629,0,0,1,2.6.491,19.224,19.224,0,0,0,6.684,1.121c.561,0,8.2-.031,8.52-.032a2.829,2.829,0,0,0,2.6-3.942,2.829,2.829,0,0,0,1.283-3.616,2.829,2.829,0,0,0,1.283-3.616A2.832,2.832,0,0,0,86.789,26.769ZM60.716,38.9H59.445V30.274a.791.791,0,0,0-1.581,0V38.9H56.592V25.561h4.124ZM76.723,1.581h3.236V4.5l-.572.7a.79.79,0,0,0-.177.5v6.587H77.472V5.7a.792.792,0,0,0-.177-.5l-.572-.7Zm-.779,12.286h4.794V15.7H75.944Zm0,5.915.936-.406a.79.79,0,0,0,.476-.725V17.282h1.97v1.369a.791.791,0,0,0,.476.725l.936.406v4.158H75.944Zm8.02,8.234H77.585a.791.791,0,1,0,0,1.581h6.059a1.246,1.246,0,0,1-.963,2.035.8.8,0,0,0-.1.006H77.549a.791.791,0,1,0,0,1.581h4.816a1.246,1.246,0,0,1-.968,2.028.793.793,0,0,0-.137.012H77.631a.791.791,0,1,0,0,1.581h3.456a1.246,1.246,0,0,1-.979,2.022c-.08,0-7.96.032-8.517.032a17.6,17.6,0,0,1-6.122-1.018l-.033-.012a13.016,13.016,0,0,0-3.021-.578l-.119-.008V27.008l.113-.014a10.676,10.676,0,0,0,5.45-2.148l.017-.012a11.967,11.967,0,0,1,6.487-2.446v2.343a.791.791,0,0,0,.791.791h8.808a1.247,1.247,0,0,1,0,2.494Z" transform="translate(-55.011)" fill="#198cc1"/></g></g></svg>