<?xml version="1.0" encoding="utf-8"?>
<!-- Generator: Adobe Illustrator 24.2.3, SVG Export Plug-In . SVG Version: 6.00 Build 0)  -->
<svg version="1.1" id="Capa_1" xmlns="http://www.w3.org/2000/svg" xmlns:xlink="http://www.w3.org/1999/xlink" x="0px" y="0px"
	 viewBox="0 0 372.7 372.7" style="enable-background:new 0 0 372.7 372.7;" xml:space="preserve">
<style type="text/css">
	.st0{fill:#198CC1;}
</style>
<g>
	<g>
		<path class="st0" d="M356.4,96h-152L278,14.4c3.5-2.6,4.3-7.6,1.6-11.2s-7.6-4.3-11.2-1.6c-0.8,0.6-1.4,1.3-2,2.1l-80,88l-80-88
			c-2.8-3.4-7.8-4-11.2-1.2s-4,7.8-1.2,11.2c0.2,0.2,0.4,0.5,0.6,0.7L168.2,96h-152c-8.8,0-16,7.2-16,16v244.6c0,8.8,7.2,16,16,16
			h340.2c8.8,0,16-7.2,16-16V111.8C372.3,103,365.2,96,356.4,96z M356.4,356.4H17.1V111.8h169.2h0.7h0.7h169L356.4,356.4z"/>
	</g>
</g>
<g>
	<g>
		<path class="st0" d="M316.2,128.7H56.8c-8.7,0.1-15.8,7.3-15.8,16v179.1c0,8.8,7.2,16,16,16h259.1c8.8,0,16-7.2,16-16V144.7
			C332.2,135.8,325,128.7,316.2,128.7z M315.9,323.5H57V144.7h259.2L315.9,323.5z"/>
	</g>
</g>
<g>
	<path class="st0" d="M150.1,285.7c-1,0-2.1-0.3-3-0.9c-1.6-1-2.5-2.8-2.5-4.6v-92.2c0-1.9,1-3.6,2.6-4.7s3.6-1.1,5.3-0.3l97.7,46.7
		c1.9,0.9,3.1,2.9,3.1,5s-1.2,4.1-3.2,5l-97.7,45.5C151.7,285.5,150.9,285.7,150.1,285.7z M155.6,196.7v74.9l79.3-37L155.6,196.7z"
		/>
</g>
</svg>
